<mxfile host="65bd71144e">
    <diagram id="BBZTjrHr6JpCgLn_HiPR" name="ページ1">
        <mxGraphModel dx="991" dy="520" grid="1" gridSize="10" guides="1" tooltips="1" connect="1" arrows="1" fold="1" page="1" pageScale="1" pageWidth="827" pageHeight="1169" math="0" shadow="0">
            <root>
                <mxCell id="0"/>
                <mxCell id="1" parent="0"/>
                <mxCell id="2" value="リアクション実装整理" style="text;html=1;strokeColor=none;fillColor=none;align=center;verticalAlign=middle;whiteSpace=wrap;rounded=0;" vertex="1" parent="1">
                    <mxGeometry x="10" y="40" width="180" height="30" as="geometry"/>
                </mxCell>
                <mxCell id="12" style="edgeStyle=none;html=1;entryX=0;entryY=0.5;entryDx=0;entryDy=0;" edge="1" parent="1" source="3" target="9">
                    <mxGeometry relative="1" as="geometry"/>
                </mxCell>
                <mxCell id="3" value="Post&lt;br&gt;- postId&lt;br&gt;- userId&lt;br&gt;- content&lt;br&gt;- createdAt&lt;br&gt;- ReactionCounts" style="whiteSpace=wrap;html=1;aspect=fixed;" vertex="1" parent="1">
                    <mxGeometry x="40" y="300" width="150" height="150" as="geometry"/>
                </mxCell>
                <mxCell id="13" style="edgeStyle=none;html=1;exitX=1;exitY=0.5;exitDx=0;exitDy=0;entryX=0;entryY=0.5;entryDx=0;entryDy=0;" edge="1" parent="1" source="4" target="8">
                    <mxGeometry relative="1" as="geometry"/>
                </mxCell>
                <mxCell id="4" value="Reaction&lt;br&gt;- userId (pk)&lt;br&gt;- postId (sk)&lt;br&gt;- ReactionStates" style="whiteSpace=wrap;html=1;aspect=fixed;" vertex="1" parent="1">
                    <mxGeometry x="240" y="220" width="130" height="130" as="geometry"/>
                </mxCell>
                <mxCell id="6" value="必要なもの&lt;br&gt;・リアクション数の管理&lt;br&gt;・リアクションしたユーザの管理&lt;br&gt;・ブックマークしたポスト" style="rounded=0;whiteSpace=wrap;html=1;align=left;" vertex="1" parent="1">
                    <mxGeometry x="40" y="100" width="220" height="80" as="geometry"/>
                </mxCell>
                <mxCell id="7" value="リアクション数の管理" style="text;html=1;strokeColor=none;fillColor=none;align=center;verticalAlign=middle;whiteSpace=wrap;rounded=0;" vertex="1" parent="1">
                    <mxGeometry x="40" y="200" width="210" height="30" as="geometry"/>
                </mxCell>
                <mxCell id="8" value="ReactionStates&lt;br&gt;- good: Boolean&lt;br&gt;- heart: Boolean&lt;br&gt;- smile: Boolean&lt;br&gt;- sad: Boolean&lt;br&gt;- bad: Boolean&lt;br&gt;- bookmarks: Boolean" style="whiteSpace=wrap;html=1;aspect=fixed;" vertex="1" parent="1">
                    <mxGeometry x="400" y="220" width="130" height="130" as="geometry"/>
                </mxCell>
                <mxCell id="9" value="ReactionCounts&lt;br&gt;- good: Int&lt;br&gt;- heart: Int&lt;br&gt;- smile: Int&lt;br&gt;- sad: Int&lt;br&gt;- bad: Int&lt;br&gt;- bookmark: Int" style="whiteSpace=wrap;html=1;aspect=fixed;" vertex="1" parent="1">
                    <mxGeometry x="230" y="400" width="130" height="130" as="geometry"/>
                </mxCell>
            </root>
        </mxGraphModel>
    </diagram>
</mxfile>